<?xml version="1.0" standalone="no"?>
<!DOCTYPE svg PUBLIC "-//W3C//DTD SVG 20010904//EN"
 "http://www.w3.org/TR/2001/REC-SVG-20010904/DTD/svg10.dtd">
<svg version="1.0" xmlns="http://www.w3.org/2000/svg"
 width="512.000000pt" height="512.000000pt" viewBox="0 0 512.000000 512.000000"
 preserveAspectRatio="xMidYMid meet">
<metadata>
Created by potrace 1.14, written by Peter Selinger 2001-2017
</metadata>
<g transform="translate(0.000000,512.000000) scale(0.100000,-0.100000)"
fill="#000000" stroke="none">
<path d="M2489 4728 c-227 -162 -450 -419 -570 -656 l-42 -83 -26 18 c-150 99
-319 179 -498 237 -179 57 -198 51 -237 -85 -43 -152 -68 -330 -70 -496 0 -84
-1 -153 -2 -153 -1 0 -41 19 -90 41 -162 75 -401 146 -554 164 -47 6 -59 4
-83 -15 -25 -20 -27 -27 -27 -88 0 -196 63 -477 155 -691 l33 -78 -121 -7
c-177 -10 -316 -37 -339 -66 -10 -12 -18 -31 -18 -42 0 -35 87 -229 152 -338
277 -464 727 -795 1266 -930 l43 -11 -83 -83 c-145 -145 -257 -323 -315 -503
l-27 -83 20 -27 c30 -40 93 -54 275 -60 180 -6 304 9 451 58 93 30 222 90 301
141 26 17 49 29 51 27 1 -2 15 -35 30 -74 55 -138 139 -262 268 -393 119 -121
136 -121 256 0 128 130 205 243 267 393 16 39 30 72 31 74 2 2 30 -13 63 -33
109 -66 250 -127 369 -159 113 -30 124 -31 322 -31 232 1 289 11 324 57 l20
27 -27 83 c-59 180 -171 360 -315 503 l-83 83 43 11 c376 93 725 293 985 564
170 176 301 372 388 577 50 119 53 137 27 169 -23 29 -162 56 -338 66 l-121 7
43 106 c89 219 144 473 144 663 0 61 -2 68 -27 88 -24 19 -36 21 -83 15 -153
-18 -392 -89 -554 -164 -49 -22 -89 -41 -90 -41 -1 0 -2 69 -2 153 -2 166 -27
344 -70 496 -39 136 -58 142 -235 85 -180 -58 -318 -123 -497 -236 l-32 -20
-16 39 c-85 203 -337 509 -552 671 -97 72 -119 76 -183 30z m152 -201 c185
-159 354 -371 440 -552 l38 -79 -45 -48 c-24 -26 -44 -57 -44 -68 0 -12 14
-35 30 -52 40 -40 63 -34 154 43 100 85 234 172 351 229 107 52 282 116 291
107 3 -3 12 -30 20 -60 48 -184 58 -480 25 -679 -25 -145 -88 -338 -110 -338
-64 -1 -407 -146 -510 -216 l-35 -24 -41 78 c-60 116 -163 265 -258 373 l-85
95 54 89 c30 48 54 96 54 105 0 32 -39 70 -71 70 -47 0 -65 -15 -110 -90 -26
-44 -45 -67 -53 -63 -6 4 -42 31 -80 60 -45 35 -78 53 -96 53 -18 0 -51 -18
-96 -53 -38 -29 -74 -56 -81 -60 -7 -5 -23 13 -43 48 -48 85 -160 225 -254
317 l-84 83 48 97 c83 166 183 300 332 444 88 86 167 154 178 154 4 0 40 -29
81 -63z m-1275 -447 c342 -116 635 -345 832 -649 l61 -94 -85 -96 c-98 -110
-205 -265 -259 -375 l-38 -75 -41 25 c-127 78 -362 180 -476 206 l-49 11 -35
111 c-62 195 -71 256 -71 496 0 167 4 235 18 305 24 122 36 165 46 165 4 0 47
-14 97 -30z m-796 -555 c55 -14 132 -37 172 -51 73 -26 279 -124 309 -147 9
-7 28 -57 42 -112 14 -55 29 -109 32 -121 6 -21 5 -21 -175 -16 -178 5 -181 4
-205 -18 -23 -22 -25 -30 -25 -127 l0 -104 -32 3 c-30 3 -36 10 -65 68 -18 36
-47 101 -64 145 -73 189 -134 505 -98 505 6 0 55 -11 109 -25z m4103 -22 c-17
-172 -84 -411 -165 -585 -38 -81 -42 -86 -74 -90 l-34 -4 0 103 c0 98 -1 105
-26 130 l-26 26 -179 -5 c-98 -3 -179 -4 -179 -2 0 29 65 242 77 251 33 25
175 94 265 130 104 40 279 91 319 92 26 1 26 -1 22 -46z m-2022 -192 c159
-128 313 -318 411 -507 l53 -102 -101 -98 c-199 -194 -342 -415 -426 -656 -12
-38 -25 -68 -28 -68 -3 0 -21 44 -40 97 -43 116 -69 142 -127 127 -55 -14 -68
-52 -41 -124 75 -201 113 -374 125 -559 l6 -104 -104 7 c-753 53 -1322 543
-1469 1266 -12 58 -24 158 -27 223 l-6 119 84 -7 c336 -27 592 -111 838 -275
106 -71 257 -212 333 -309 66 -85 84 -101 117 -101 43 1 81 43 81 89 0 28
-142 202 -240 294 l-81 76 47 93 c67 133 153 254 263 370 94 99 224 218 239
218 4 0 46 -31 93 -69z m1599 -403 c0 -62 -23 -254 -40 -336 -148 -710 -730
-1207 -1461 -1249 l-112 -6 6 119 c21 424 219 836 529 1105 275 238 639 376
1021 387 53 2 57 0 57 -20z m-3558 -234 l46 -6 7 -54 c10 -81 61 -265 101
-368 68 -172 190 -374 299 -494 63 -69 62 -69 -81 -1 -262 124 -522 344 -698
589 -62 86 -162 262 -171 302 l-7 26 79 7 c43 3 85 8 93 10 20 6 274 -3 332
-11z m4212 -2 l39 -7 -56 -107 c-183 -354 -464 -628 -830 -808 -67 -33 -125
-60 -130 -60 -4 0 18 31 51 68 124 144 214 292 286 469 47 114 99 299 112 391
l6 51 67 6 c36 3 75 8 86 10 30 6 324 -5 369 -13z m-3216 -1331 c78 -39 232
-95 319 -116 78 -18 83 -24 83 -103 0 -42 0 -43 -86 -98 -105 -69 -215 -117
-342 -151 -85 -23 -119 -26 -264 -27 -91 -1 -169 2 -173 5 -10 11 49 131 108
222 30 46 83 114 118 152 66 70 153 145 170 145 5 0 35 -13 67 -29z m1917 -53
c109 -102 190 -210 252 -334 39 -79 45 -97 33 -104 -24 -16 -260 -11 -349 5
-165 32 -313 91 -441 177 l-65 44 0 64 0 64 35 10 c98 26 283 90 345 120 39
19 77 35 86 35 9 1 56 -36 104 -81z m-1045 -121 c113 0 231 3 263 7 l57 7 0
-29 c0 -55 -49 -224 -89 -307 -43 -88 -135 -218 -195 -274 l-36 -35 -36 35
c-60 56 -152 186 -195 274 -40 83 -89 252 -89 307 l0 29 58 -7 c31 -4 149 -7
262 -7z"/>
</g>
</svg>
